<svg data-name="Layer 1" viewBox="0 0 100 100" width="100" height="100" xmlns="http://www.w3.org/2000/svg"><g display="inline"><path d="M85.55 12.123s-.886 17.406 2.163 25.78c-4.782 4.193-10.152 8.97-10.992 10.12-1.383 1.896-.351 10.035-5.008 13.495-2.347 1.742-7.423 5.036-11.881 7.875-4.395 2.798-8.19 5.152-8.19 5.152s1.472 1.471 3.786 3.432c3.927 3.327 10.273 8.063 15.937 9.408 2.482.589 5.448.303 8.553-.315 1.02-.202 2.055-.44 3.092-.693 6.223-1.522 12.542-3.63 16.312-2.143a4.901 4.901 0 0 1 1.662 1.063c1.966 1.935 3.105 3.853 3.76 5.494.219.547.382 1.063.506 1.54.248.95.332 1.74.354 2.292a5.86 5.86 0 0 1-.018.867s.319-.53.797-1.414c1.434-2.652 4.304-8.49 4.316-12.775 0 0 .186.098.504.299.318.2.768.502 1.295.912 1.318 1.024 3.117 2.716 4.543 5.146a16.68 16.68 0 0 1 1.979 5.186c.535 2.672.503 5.843-.534 9.549 0 0 .228-.22.62-.627 2.738-2.857 13.431-15.019 9.24-26.795 0 0 2.258 1.105 4.638 2.925.595.456 1.197.954 1.774 1.493 1.441 1.347 2.723 2.937 3.318 4.674.12.347.21.7.27 1.058 0 0 1.178-4.477.185-9.732a20.737 20.737 0 0 0-.435-1.84c-1.019-3.569-3.157-7.29-7.395-10.09 0 0 .61-.09 1.606-.156.996-.066 2.38-.108 3.923-.012.772.048 1.584.13 2.409.262 2.474.394 5.062 1.229 7.004 2.886 0 0-.038-.183-.125-.51-.611-2.284-3.648-11.622-13.131-14.804 0 0 8.243-2.074 12.117-7.633 0 0-3.578-.009-7.402-.763a28.443 28.443 0 0 1-2.297-.55c-1.516-.432-2.965-1.009-4.133-1.775a.32.32 0 0 1-.012-.031c-.207-.64-3.59-10.958-7.644-16.82a81.798 81.798 0 0 0-9.17-10.867s-6.478 9.16-7.971 17.072c0 0-1.614-.505-3.99-.363l.01-.02s-3.634-3.942-8.832-10.092-7.512-7.16-7.512-7.16z" transform="translate(-48.643 -7.257)" fill="#50474d" stroke="#fff" stroke-width="6" stroke-linecap="round" stroke-linejoin="round" stroke-miterlimit="4" stroke-dasharray="none" stroke-opacity="1" paint-order="stroke fill markers"/><g display="inline"><path transform="matrix(.39307 0 0 .39307 346.928 -203.242)" d="M-788.709 529.436s-2.844 55.72 8.789 72.23c11.633 16.51 32.793-28.341 32.793-28.341s-9.243-10.03-22.467-25.675c-13.224-15.645-19.115-18.214-19.115-18.214z" fill="#50474d"/><path transform="matrix(.39307 0 0 .39307 346.928 -203.242)" d="M-654.392 715.148c-2.449-14.591-25.444-25.823-25.444-25.823 12.186 34.24-25.08 69.759-25.08 69.759 10.554-37.704-19.813-53.656-19.813-53.656-.04 14.533-13.006 36.1-13.006 36.1s1.627-12.806-11.709-25.933c-9.659-9.502-32.838.4-53.591 4.508-7.9 1.57-15.446 2.302-21.761.803-14.41-3.421-30.553-15.47-40.545-23.936-5.887-4.987-9.632-8.73-9.632-8.73s9.656-5.988 20.837-13.108c11.342-7.222 24.256-15.604 30.227-20.036 11.848-8.801 9.22-29.504 12.737-34.326 3.525-4.826 44.415-40.123 44.415-40.123 15.104-11.184 29.758-6.346 29.758-6.346 3.799-20.13 20.276-43.432 20.276-43.432a208.099 208.099 0 0 1 23.33 27.645c10.317 14.914 18.922 41.165 19.45 42.793a.816.816 0 0 0 .025.08c11.887 7.794 35.192 7.851 35.192 7.851-9.856 14.142-30.826 19.419-30.826 19.419 27.572 9.251 33.72 38.96 33.72 38.96-13.171-11.247-38.01-7.58-38.01-7.58 28.925 19.107 19.45 55.11 19.45 55.11z" fill="#5f5358"/><path transform="matrix(.39307 0 0 .39307 346.928 -203.242)" d="M-798.922 653.227s7.574-13.053 12.337-15.168c4.763-2.115 22.419-4.299 22.419-4.299s-8.743 12.055-14.819 13.476c-6.076 1.42-19.937 5.991-19.937 5.991z" fill="#efe5b6"/><path transform="matrix(.39307 0 0 .39307 346.928 -203.242)" d="M-853.63 689.77c-.73 1.456-5.145 3.635-5.62 4.018-.47.39-.612-2.09-.612-2.09l-3.77-.485-.78 3.192-.929 2.565c-5.887-4.987-9.632-8.73-9.632-8.73s9.656-5.988 20.837-13.108c0 0 1.241 13.189.507 14.638zM-654.392 715.148c-2.449-14.591-25.444-25.823-25.444-25.823 12.186 34.24-25.08 69.759-25.08 69.759 10.554-37.704-19.813-53.656-19.813-53.656-.04 14.533-13.006 36.1-13.006 36.1s1.627-12.806-11.709-25.933c-9.659-9.502-32.838.4-53.591 4.508 0 0 26.51-16.489 45.946-15.999 19.435.49 22.562 11.285 22.562 11.285s5.23-17.277.398-26.23c0 0 18.954-1.63 33.598 8.217 0 0-5.854-24.25-19.297-29.791 0 0 21.815-4.088 34.466 1.583 0 0 2.457-13.113-16.31-21.466 0 0 16.983-4.872 32.37-.105 0 0-11.512-18.544-26.236-22.934 0 0 22.996-3.81 30.265-8.93a39.704 39.704 0 0 1-8.645-14.346c11.887 7.795 35.192 7.851 35.192 7.851-9.856 14.142-30.826 19.419-30.826 19.419 27.572 9.252 33.72 38.96 33.72 38.96-13.172-11.247-38.01-7.58-38.01-7.58 28.925 19.107 19.45 55.11 19.45 55.11zM-714.547 547.573s15.536 20.546 17.443 35.304c1.907 14.758-.725 22.64-.725 22.64s-7.851-13.204-21.715-21.107c-13.863-7.904 4.997-36.837 4.997-36.837z" fill="#50474d"/></g></g></svg>